<?xml version="1.0" encoding="UTF-8"?>
<svg width="35px" height="40px" viewBox="0 0 35 40" version="1.1" xmlns="http://www.w3.org/2000/svg" xmlns:xlink="http://www.w3.org/1999/xlink">
    <!-- Generator: Sketch 45 (43475) - http://www.bohemiancoding.com/sketch -->
    <title>picto/character-active</title>
    <desc>Created with Sketch.</desc>
    <defs>
        <path d="M21.4959977,18.2156113 C24.2598387,27.2638204 28.7175007,35.3488426 28.7175007,35.3488426 C28.7175007,35.3488426 23.3975005,37.3333333 18.0775003,37.3333333 C12.7575002,37.3333333 7.4375,35.3488426 7.4375,35.3488426 C7.4375,35.3488426 11.7972155,26.4404371 13.7907239,18.1849171 C11.6966625,16.8831924 10.3021155,14.5585698 10.3021155,11.9075468 C10.3021155,7.83075755 13.600055,4.52586686 17.6682696,4.52586686 C21.7364841,4.52586686 25.0344236,7.83075755 25.0344236,11.9075468 C25.0344236,14.5795371 23.6177301,16.9199435 21.4959977,18.2156113 Z" id="path-1"></path>
    </defs>
    <g id="Symbols" stroke="none" stroke-width="1" fill="none" fill-rule="evenodd">
        <g id="picto/character-active">
            <g id="Combined-Shape">
                <use fill="#0C163E" fill-rule="evenodd" xlink:href="#path-1"></use>
                <path stroke="#96C1F3" stroke-width="1" d="M8.12955364,35.0605044 C8.24106968,35.0976586 8.36616735,35.1385532 8.50414855,35.1826707 C9.22146533,35.4120222 10.02148,35.64158 10.8831664,35.8558668 C13.3405562,36.4669779 15.7958598,36.8333333 18.0775003,36.8333333 C20.3591408,36.8333333 22.8144444,36.4669779 25.2718343,35.8558668 C26.1335207,35.64158 26.9335354,35.4120222 27.6508521,35.1826707 C27.778294,35.141923 27.8947452,35.1039247 27.999656,35.0690834 C27.9603267,34.9947418 27.91785,34.9141027 27.8723444,34.8273029 C27.5503812,34.2131744 27.1918458,33.5086097 26.8058744,32.7241614 C25.7035725,30.4838424 24.6014128,28.05101 23.5724776,25.5098187 C22.5932839,23.0914755 21.7310163,20.6965628 21.0178087,18.3616776 L20.9045597,17.9909252 L21.2354113,17.7888857 C23.2681381,16.5475705 24.5344236,14.3374454 24.5344236,11.9075468 C24.5344236,8.10666453 21.4601058,5.02586686 17.6682696,5.02586686 C13.8764333,5.02586686 10.8021155,8.10666453 10.8021155,11.9075468 C10.8021155,14.3180326 12.0481081,16.5129287 14.0546926,17.7602754 L14.3615709,17.9510392 L14.2767544,18.3022817 C14.1416841,18.8616348 13.9937371,19.4327516 13.8334523,20.0148993 C13.2304908,22.2048303 12.4629605,24.5175758 11.5691695,26.8996475 C10.7640559,29.0453825 9.90170681,31.1291782 9.03928181,33.0701589 C8.73733543,33.7497218 8.4568656,34.3630631 8.20502037,34.9000405 C8.17853945,34.9565024 8.15337114,35.0100084 8.12955364,35.0605044 Z"></path>
            </g>
        </g>
    </g>
</svg>