<?xml version="1.0" encoding="UTF-8"?>
<svg width="35px" height="40px" viewBox="0 0 35 40" version="1.1" xmlns="http://www.w3.org/2000/svg" xmlns:xlink="http://www.w3.org/1999/xlink">
    <!-- Generator: Sketch 45 (43475) - http://www.bohemiancoding.com/sketch -->
    <title>picto/image_file</title>
    <desc>Created with Sketch.</desc>
    <defs></defs>
    <g id="Symbols" stroke="none" stroke-width="1" fill="none" fill-rule="evenodd">
        <g id="picto/image_file">
            <rect id="Rectangle-6-Copy" stroke="#979797" x="4.875" y="6.72222222" width="25.25" height="26.5555556" rx="4"></rect>
            <path d="M18.3056199,24.8459205 L18.2957914,24.8642384 L13.9955322,21.1454526 L5.83180295,31.163613 L5,30.6085419 L13.7497831,17.4965349 L18.2082463,23.0794991 L26.2642589,12.4965349 L30.3743709,16.4940897 L29.6771479,17.210944 L26.2642589,15.560044 L18.8530379,23.8184141 L20.7274749,26.2691579 L19.9432751,26.8896357 L20.7312969,26.2739884 L19.9470971,26.8944662 L18.3056199,24.8459205 Z M15.3125,15.7708475 C13.4719964,15.7708475 11.9799735,14.2551417 11.9799735,12.3854238 C11.9799735,10.5157058 13.4719964,9 15.3125,9 C17.1530036,9 18.6450265,10.5157058 18.6450265,12.3854238 C18.6450265,14.2551417 17.1530036,15.7708475 15.3125,15.7708475 Z" id="image-landscape-copy" fill="#9B9B9B"></path>
        </g>
    </g>
</svg>