<?xml version="1.0" encoding="UTF-8"?>
<svg width="35px" height="40px" viewBox="0 0 35 40" version="1.1" xmlns="http://www.w3.org/2000/svg" xmlns:xlink="http://www.w3.org/1999/xlink">
    <!-- Generator: Sketch 45 (43475) - http://www.bohemiancoding.com/sketch -->
    <title>picto/smartphone-hover</title>
    <desc>Created with Sketch.</desc>
    <defs></defs>
    <g id="Symbols" stroke="none" stroke-width="1" fill="none" fill-rule="evenodd">
        <g id="picto/smartphone-hover" stroke="#4A90E2">
            <path d="M7.5,5.66738082 L7.5,34.3326192 C7.5,35.7175154 8.6154471,36.8333333 9.99575846,36.8333333 L25.8792415,36.8333333 C27.2610703,36.8333333 28.375,35.7160676 28.375,34.3326192 L28.375,5.66738082 C28.375,4.28248458 27.2595529,3.16666667 25.8792415,3.16666667 L9.99575846,3.16666667 C8.61392974,3.16666667 7.5,4.2839324 7.5,5.66738082 Z M10,8.21448801 C10,6.83353717 11.1143309,5.72222222 12.5061087,5.72222222 L23.3688913,5.72222222 C24.7527612,5.72222222 25.875,6.83602261 25.875,8.21448801 L25.875,26.2422294 C25.875,27.6231802 24.7606691,28.7344952 23.3688913,28.7344952 L12.5061087,28.7344952 C11.1222388,28.7344952 10,27.6206948 10,26.2422294 L10,8.21448801 Z M18.1664087,34.1666667 C17.1636147,34.1666667 16.3539087,33.3441082 16.3539087,32.3333333 C16.3539087,31.3225585 17.1636147,30.5 18.1664087,30.5 C19.1692027,30.5 19.9789087,31.3225585 19.9789087,32.3333333 C19.9789087,33.3441082 19.1692027,34.1666667 18.1664087,34.1666667 Z" id="Combined-Shape"></path>
        </g>
    </g>
</svg>