<?xml version="1.0" encoding="UTF-8"?>
<svg width="35px" height="40px" viewBox="0 0 35 40" version="1.1" xmlns="http://www.w3.org/2000/svg" xmlns:xlink="http://www.w3.org/1999/xlink">
    <!-- Generator: Sketch 45 (43475) - http://www.bohemiancoding.com/sketch -->
    <title>picto/smartphone-active</title>
    <desc>Created with Sketch.</desc>
    <defs>
        <path d="M7,6.00071415 C7,4.34346549 8.33545012,3 9.99575846,3 L25.8792415,3 C27.5337533,3 28.875,4.33773285 28.875,6.00071415 L28.875,34.6659525 C28.875,36.3232012 27.5395499,37.6666667 25.8792415,37.6666667 L9.99575846,37.6666667 C8.34124675,37.6666667 7,36.3289338 7,34.6659525 L7,6.00071415 Z M10.9750664,8.54782134 L10.9750664,26.5755627 C10.9750664,27.6776582 11.8683004,28.5678285 12.9701603,28.5678285 L22.9048397,28.5678285 C24.0076877,28.5678285 24.8999336,27.6758607 24.8999336,26.5755627 L24.8999336,8.54782134 C24.8999336,7.44572582 24.0066996,6.55555556 22.9048397,6.55555556 L12.9701603,6.55555556 C11.8673123,6.55555556 10.9750664,7.44752333 10.9750664,8.54782134 Z" id="path-1"></path>
        <circle id="path-2" cx="18" cy="33" r="2"></circle>
    </defs>
    <g id="Symbols" stroke="none" stroke-width="1" fill="none" fill-rule="evenodd">
        <g id="picto/smartphone-active">
            <g id="Combined-Shape">
                <use fill="#0C163E" fill-rule="evenodd" xlink:href="#path-1"></use>
                <path stroke="#96C1F3" stroke-width="1" d="M7.5,6.00071415 L7.5,34.6659525 C7.5,36.0508487 8.6154471,37.1666667 9.99575846,37.1666667 L25.8792415,37.1666667 C27.2610703,37.1666667 28.375,36.0494009 28.375,34.6659525 L28.375,6.00071415 C28.375,4.61581792 27.2595529,3.5 25.8792415,3.5 L9.99575846,3.5 C8.61392974,3.5 7.5,4.61726573 7.5,6.00071415 Z M10.4750664,8.54782134 C10.4750664,7.17091952 11.5916316,6.05555556 12.9701603,6.05555556 L22.9048397,6.05555556 C24.2832358,6.05555556 25.3999336,7.16997544 25.3999336,8.54782134 L25.3999336,26.5755627 C25.3999336,27.9524645 24.2833684,29.0678285 22.9048397,29.0678285 L12.9701603,29.0678285 C11.5917642,29.0678285 10.4750664,27.9534086 10.4750664,26.5755627 L10.4750664,8.54782134 Z"></path>
            </g>
            <g id="Oval">
                <use fill="#0C163E" fill-rule="evenodd" xlink:href="#path-2"></use>
                <circle stroke="#96C1F3" stroke-width="1" cx="18" cy="33" r="1.5"></circle>
            </g>
        </g>
    </g>
</svg>