<?xml version="1.0" encoding="UTF-8"?>
<svg width="100pt" height="100pt" version="1.1" viewBox="0 0 100 100" xmlns="http://www.w3.org/2000/svg">
 <path d="m77.344 49.316l-24.547-12.273-3.8164-33.383c-0.1875-1.6445-1.6758-2.8281-3.3203-2.6406-0.34375 0.039063-0.70703 0.15625-1 0.29688l-26 13c-1.0703 0.55859-1.7852 1.7539-1.6406 3.0234l3.9805 34.832v30.828c0 1.6562 1.3438 3 3 3s3-1.3438 3-3v-26.145l20 10v29.145c0 1.6562 1.3438 3 3 3s3-1.3438 3-3v-29.145l20-10v26.145c0 1.6562 1.3438 3 3 3s3-1.3438 3-3v-31c0-1.1289-0.73828-2.1719-1.6562-2.6836zm-30.562-12.062l-20.289 10.145-2.3555-20.613 20.289-10.145z"/>
</svg>
