<?xml version="1.0" encoding="UTF-8"?>
<svg width="100pt" height="100pt" version="1.1" viewBox="0 0 100 100" xmlns="http://www.w3.org/2000/svg">
 <path d="m81.641 21.465h-3.6367v-1.0781c0-3.2383-2.6328-5.8867-5.8594-5.8867h-0.082031c-3.2266 0-5.8594 2.6484-5.8594 5.8867v1.0781h-32.406v-1.0781c0-3.2383-2.6406-5.8867-5.8594-5.8867h-0.089844c-3.2188 0-5.8594 2.6484-5.8594 5.8867v1.0781h-3.6289c-3.2227 0-5.8594 2.6484-5.8594 5.8828v56.266c0 3.2383 2.6406 5.8867 5.8594 5.8867h63.281c3.2266 0 5.8594-2.6484 5.8594-5.8867v-56.266c0-3.2344-2.6328-5.8828-5.8594-5.8828zm-13.098-1.0781c0-1.9492 1.5781-3.5352 3.5156-3.5352h0.082031c1.9414 0 3.5156 1.5859 3.5156 3.5352v10.469c0 1.9453-1.5742 3.5195-3.5156 3.5312h-0.082031c-1.9453-0.003907-3.5195-1.5859-3.5156-3.5312zm-44.211 0c0-1.9492 1.5742-3.5352 3.5156-3.5352h0.089844c1.9375 0 3.5156 1.5859 3.5156 3.5352v10.469c0 1.9453-1.5742 3.5195-3.5156 3.5312h-0.089844c-1.9453-0.003907-3.5156-1.5859-3.5156-3.5312zm57.309 64.406h-63.281c-0.64453-0.011719-1.1641-0.53516-1.1719-1.1797v-41.363h65.625v41.367c-0.007812 0.64453-0.52734 1.1719-1.1719 1.1797zm-55.84-34.125v5.3242h10.812v-5.3203h-10.812zm18.879 0v5.3242h10.727v-5.3203h-10.727zm18.793 0v5.3242h10.551v-5.3203h-10.551zm-37.672 10.816v5.2344h10.812v-5.2344zm18.879 0v5.2344h10.727v-5.2344zm18.793 0v5.2344h10.551v-5.2344zm-37.672 10.555v5.4883h10.812v-5.4883zm18.879 0v5.4883h10.727v-5.4883zm18.793 0v5.4883h10.551v-5.4883z" fill-rule="evenodd"/>
</svg>
