<?xml version="1.0" encoding="UTF-8"?>
<svg width="100pt" height="100pt" version="1.1" viewBox="0 0 100 100" xmlns="http://www.w3.org/2000/svg">
 <g fill-rule="evenodd">
  <path d="m94.031 0.089844c0 1.8477-13.637 20.785-14.723 28.313-1.8477-0.58594-7.2461-2.7617-8.5273-2.4805-3.5742 0.51172-9.6328 6.9844-11.508 9.0234-0.92188 1.1797-5.4297 0-5.5078-2.0781 0.98828-1.6641 16.152-34.801 40.27-32.777z"/>
  <path d="m84.078 90.387l-36.629 9.6133-7.25-27.625 36.629-9.6133zm-38.867-16.594l16.289 9.6523c0.35547 0.21094 0.82031 0.26172 1.2812 0.14063h0.007812c0.45313-0.11719 0.84375-0.39063 1.043-0.73438l9.5352-16.445-28.156 7.3906zm5.9023 22.516l27.961-7.3359-11.672-7.0039-1.2812 2.2109c-0.55469 0.95312-1.5234 1.668-2.6562 1.9648-0.007813 0-0.011719 0.003907-0.019532 0.003907-1.1406 0.29297-2.3398 0.13672-3.2891-0.42969l-2.2422-1.3281-6.7969 11.922zm-7.207-20.219l4.9453 18.852 6.7852-11.898-11.73-6.9492zm24.82 3.5898l11.645 6.9883-4.8906-18.637z"/>
  <path d="m70.938 29.094c-4.3125 0.61719-11.453 9.1484-11.453 9.1484s-6.7773 0.26953-9.7695-4.3945c-0.17578-2.1992 5.3711-7.125-5.5352-8.5312-4.7031-1.0586-27.648-12.242-31.344-17.961-15.141 34.855 17.781 39.875 17.781 39.875s0.61719 2.2891 1.8477 3.6094c1.1992 1.2812 6.9492 0.078125 7.2852 0.007812-0.375 0.14062-6.4062 2.3789-9.2227 2.6328-2.9102 0.26172-24.559-1.4102-24.559-1.4102 9.4766 31.398 35.559 11.797 35.559 11.797 10.234 0.27734 29.031-1.9453 32.656-19.805 0 0 0.30469-6.0859 12.676-8.8906-1.3242-1-11.859-6.7852-15.922-6.0781zm-0.20312 5.4062c-0.27344-0.17578-0.48047-0.45312-0.5625-0.78125-0.050781-0.15234-0.078125-0.32031-0.078125-0.49219 0-0.88281 0.73047-1.6016 1.625-1.6016 0.89844 0 1.6289 0.71484 1.6289 1.6016 0 0.88281-0.73047 1.6016-1.6289 1.6016-0.37109 0-0.71094-0.12109-0.98828-0.32812z"/>
 </g>
</svg>
