<?xml version="1.0" encoding="UTF-8"?>
<svg width="100pt" height="100pt" version="1.1" viewBox="0 0 100 100" xmlns="http://www.w3.org/2000/svg">
 <path d="m93.125 14.375h-86.25c-1.0352 0-1.875 0.83984-1.875 1.875v67.5c0 1.0352 0.83984 1.875 1.875 1.875h86.25c1.0352 0 1.875-0.83984 1.875-1.875v-67.5c0-1.0352-0.83984-1.875-1.875-1.875zm-2.4258 64.301c0.73047 0.73047 0.73047 1.9219 0 2.6523-0.72656 0.72266-1.9062 0.74219-2.6523 0l-28.672-28.676-8.0508 8.0508c-0.73438 0.73047-1.918 0.73047-2.6523 0l-8.0508-8.0508-28.672 28.672c-0.71875 0.71875-1.8984 0.75391-2.6523 0-0.73047-0.73047-0.73047-1.9219 0-2.6523l28.676-28.672-28.672-28.676c-0.73047-0.73047-0.73047-1.918 0-2.6523 0.73047-0.73047 1.918-0.73047 2.6523 0l38.047 38.051 38.051-38.051c0.73047-0.73047 1.9219-0.73047 2.6523 0s0.73047 1.918 0 2.6523l-28.676 28.676z"/>
</svg>
